<?xml version="1.0" encoding="UTF-8" standalone="no"?>
<svg width="438px" height="180px" viewBox="0 0 438 180" version="1.1" xmlns="http://www.w3.org/2000/svg" xmlns:xlink="http://www.w3.org/1999/xlink" xmlns:sketch="http://www.bohemiancoding.com/sketch/ns">
    <!-- Generator: Sketch Beta 3.0.3 (7884) - http://www.bohemiancoding.com/sketch -->
    <title>sia</title>
    <desc>Created with Sketch Beta.</desc>
    <defs></defs>
    <g id="Page-1" stroke="none" stroke-width="1" fill="none" fill-rule="evenodd" sketch:type="MSPage">
        <g id="Network-+-Harddrive-+-Sia" sketch:type="MSLayerGroup" transform="translate(-9.000000, -9.000000)">
            <g id="Network" stroke="#333333" sketch:type="MSShapeGroup">
                <path d="M111.695547,174.748877 C111.695547,181.197661 106.466598,186.425102 100.016844,186.425102 C93.5666913,186.425102 88.3381405,181.197262 88.3381405,174.748877 C88.3381405,168.300093 93.5670896,163.072651 100.016844,163.072651 C106.466996,163.072651 111.695547,168.300491 111.695547,174.748877 L111.695547,174.748877 Z" id="path4047-2" stroke-width="4.48695585" fill="#E6E6E6"></path>
                <path d="M111.695547,174.748877 C111.695547,181.197661 106.466598,186.425102 100.016844,186.425102 C93.5666913,186.425102 88.3381405,181.197262 88.3381405,174.748877 C88.3381405,168.300093 93.5670896,163.072651 100.016844,163.072651 C106.466996,163.072651 111.695547,168.300491 111.695547,174.748877 L111.695547,174.748877 Z" id="path4047-2" stroke-width="4.48695585" fill="#E6E6E6"></path>
                <path d="M46.2307692,46.3250689 L99.606044,175.410468 L46.2307692,46.3250689 Z" id="path4222-6" stroke-width="4.13866449" fill="#333333"></path>
                <path d="M45.4450549,153.366391 L99.6049451,176.979063 L45.4450549,153.366391 Z" id="path4224-2" stroke-width="4.13866449"></path>
                <path d="M111.695547,174.748877 C111.695547,181.197661 106.466598,186.425102 100.016844,186.425102 C93.5666913,186.425102 88.3381405,181.197262 88.3381405,174.748877 C88.3381405,168.300093 93.5670896,163.072651 100.016844,163.072651 C106.466996,163.072651 111.695547,168.300491 111.695547,174.748877 L111.695547,174.748877 Z" id="path4047-2" stroke-width="4.48695585" fill="#E6E6E6"></path>
                <g id="use4233-1" transform="translate(73.254423, 96.285067) rotate(45.000000) translate(-73.254423, -96.285067) translate(40.254423, 26.285067)">
                    <path d="M0.626373625,0.0440771349 L54.0016483,129.129476 L0.626373625,0.0440771349 Z" id="path4360-5" stroke-width="4.13866448" fill="#333333"></path>
                    <path d="M-0.159340659,107.085399 L54.0005494,130.698071 L-0.159340659,107.085399 Z" id="path4362-5" stroke-width="4.13866448"></path>
                    <g id="use4364-2" transform="translate(42.857143, 116.804408)" stroke-width="4.48695584" fill="#E6E6E6">
                        <g id="use4069-3" transform="translate(-0.000000, 0.000000)">
                            <path d="M23.2340088,11.6634772 C23.2340088,18.112261 18.0050596,23.3397024 11.5553054,23.3397024 C5.10515284,23.3397024 -0.123398009,18.1118628 -0.123398009,11.6634772 C-0.123398009,5.21469331 5.10555114,-0.0127480702 11.5553054,-0.0127480702 C18.0054579,-0.0127480702 23.2340088,5.21509153 23.2340088,11.6634772 L23.2340088,11.6634772 Z" id="path4047-2"></path>
                        </g>
                    </g>
                </g>
                <g id="use4235-8" transform="translate(83.571648, 78.352069) rotate(90.000000) translate(-83.571648, -78.352069) translate(50.571648, 8.352069)">
                    <path d="M0.626373626,0.044077135 L54.0016484,129.129477 L0.626373626,0.044077135 Z" id="path4352-6" stroke-width="4.13866449" fill="#333333"></path>
                    <path d="M-0.159340659,107.085399 L54.0005495,130.698072 L-0.159340659,107.085399 Z" id="path4354-1" stroke-width="4.13866449"></path>
                    <g id="use4356-0" transform="translate(42.857143, 116.804408)" stroke-width="4.48695585" fill="#E6E6E6">
                        <g id="use4069-3" transform="translate(-0.000000, 0.000000)">
                            <path d="M23.2340088,11.6634772 C23.2340088,18.1122611 18.0050596,23.3397024 11.5553054,23.3397024 C5.10515284,23.3397024 -0.123398009,18.1118628 -0.123398009,11.6634772 C-0.123398009,5.21469332 5.10555114,-0.0127480702 11.5553054,-0.0127480702 C18.0054579,-0.0127480702 23.2340088,5.21509154 23.2340088,11.6634772 L23.2340088,11.6634772 Z" id="path4047-2"></path>
                        </g>
                    </g>
                </g>
                <g id="use4237-6" transform="translate(103.512377, 72.986902) rotate(135.000000) translate(-103.512377, -72.986902) translate(70.512377, 2.986902)">
                    <path d="M0.626373625,0.0440771349 L54.0016483,129.129476 L0.626373625,0.0440771349 Z" id="path4344-0" stroke-width="4.13866448" fill="#333333"></path>
                    <path d="M-0.159340659,107.085399 L54.0005494,130.698071 L-0.159340659,107.085399 Z" id="path4346-5" stroke-width="4.13866448"></path>
                    <g id="use4348-5" transform="translate(42.857143, 116.804408)" stroke-width="4.48695584" fill="#E6E6E6">
                        <g id="use4069-3" transform="translate(0.000000, 0.000000)">
                            <path d="M23.2340088,11.6634772 C23.2340088,18.112261 18.0050596,23.3397024 11.5553054,23.3397024 C5.10515284,23.3397024 -0.123398009,18.1118628 -0.123398009,11.6634772 C-0.123398009,5.21469331 5.10555114,-0.0127480702 11.5553054,-0.0127480702 C18.0054579,-0.0127480702 23.2340088,5.21509153 23.2340088,11.6634772 L23.2340088,11.6634772 Z" id="path4047-2"></path>
                        </g>
                    </g>
                </g>
                <g id="use4239-6" transform="translate(121.395599, 83.332413) scale(-1, -1) translate(-121.395599, -83.332413) translate(88.395599, 13.332413)">
                    <path d="M0.626373626,0.044077135 L54.0016484,129.129477 L0.626373626,0.044077135 Z" id="path4336-2" stroke-width="4.13866449" fill="#333333"></path>
                    <path d="M-0.159340659,107.085399 L54.0005495,130.698072 L-0.159340659,107.085399 Z" id="path4338-8" stroke-width="4.13866449"></path>
                    <g id="use4340-6" transform="translate(42.857143, 116.804408)" stroke-width="4.48695585" fill="#E6E6E6">
                        <g id="use4069-3" transform="translate(0.000000, 0.000000)">
                            <path d="M23.2340088,11.6634772 C23.2340088,18.1122611 18.0050596,23.3397024 11.5553054,23.3397024 C5.10515284,23.3397024 -0.123398009,18.1118628 -0.123398009,11.6634772 C-0.123398009,5.21469332 5.10555114,-0.0127480702 11.5553054,-0.0127480702 C18.0054579,-0.0127480702 23.2340088,5.21509154 23.2340088,11.6634772 L23.2340088,11.6634772 Z" id="path4047-2"></path>
                        </g>
                    </g>
                </g>
                <g id="use4241-4" transform="translate(126.745571, 103.328340) rotate(225.000000) translate(-126.745571, -103.328340) translate(93.745571, 33.328340)">
                    <path d="M0.626373625,0.0440771349 L54.0016483,129.129476 L0.626373625,0.0440771349 Z" id="path4328-8" stroke-width="4.13866448" fill="#333333"></path>
                    <path d="M-0.159340659,107.085399 L54.0005494,130.698071 L-0.159340659,107.085399 Z" id="path4330-5" stroke-width="4.13866448"></path>
                    <g id="use4332-1" transform="translate(42.857143, 116.804408)" stroke-width="4.48695584" fill="#E6E6E6">
                        <g id="use4069-3" transform="translate(-0.000000, 0.000000)">
                            <path d="M23.2340088,11.6634772 C23.2340088,18.112261 18.0050596,23.3397024 11.5553054,23.3397024 C5.10515284,23.3397024 -0.123398009,18.1118628 -0.123398009,11.6634772 C-0.123398009,5.21469331 5.10555114,-0.0127480702 11.5553054,-0.0127480702 C18.0054579,-0.0127480702 23.2340088,5.21509153 23.2340088,11.6634772 L23.2340088,11.6634772 Z" id="path4047-2"></path>
                        </g>
                    </g>
                </g>
                <g id="use4243-0" transform="translate(116.428346, 121.261336) rotate(-90.000000) translate(-116.428346, -121.261336) translate(83.428346, 51.261336)">
                    <path d="M0.626373626,0.044077135 L54.0016484,129.129477 L0.626373626,0.044077135 Z" id="path4320-7" stroke-width="4.13866449" fill="#333333"></path>
                    <path d="M-0.159340659,107.085399 L54.0005495,130.698072 L-0.159340659,107.085399 Z" id="path4322-0" stroke-width="4.13866449"></path>
                    <g id="use4324-9" transform="translate(42.857143, 116.804408)" stroke-width="4.48695585" fill="#E6E6E6">
                        <g id="use4069-3" transform="translate(0.000000, 0.000000)">
                            <path d="M23.2340088,11.6634772 C23.2340088,18.1122611 18.0050596,23.3397024 11.5553054,23.3397024 C5.10515284,23.3397024 -0.123398009,18.1118628 -0.123398009,11.6634772 C-0.123398009,5.21469332 5.10555114,-0.0127480702 11.5553054,-0.0127480702 C18.0054579,-0.0127480702 23.2340088,5.21509154 23.2340088,11.6634772 L23.2340088,11.6634772 Z" id="path4047-2"></path>
                        </g>
                    </g>
                </g>
                <g id="use4245-6" transform="translate(96.487617, 126.626503) rotate(-45.000000) translate(-96.487617, -126.626503) translate(63.487617, 56.626503)">
                    <path d="M0.626373625,0.0440771349 L54.0016483,129.129476 L0.626373625,0.0440771349 Z" id="path4312-2" stroke-width="4.13866448" fill="#333333"></path>
                    <path d="M-0.159340659,107.085399 L54.0005494,130.698071 L-0.159340659,107.085399 Z" id="path4314-4" stroke-width="4.13866448"></path>
                    <g id="use4316-2" transform="translate(42.857143, 116.804408)" stroke-width="4.48695584" fill="#E6E6E6">
                        <g id="use4069-3" transform="translate(-0.000000, 0.000000)">
                            <path d="M23.2340088,11.6634772 C23.2340088,18.112261 18.0050596,23.3397024 11.5553054,23.3397024 C5.10515284,23.3397024 -0.123398009,18.1118628 -0.123398009,11.6634772 C-0.123398009,5.21469331 5.10555114,-0.0127480702 11.5553054,-0.0127480702 C18.0054579,-0.0127480702 23.2340088,5.21509153 23.2340088,11.6634772 L23.2340088,11.6634772 Z" id="path4047-2"></path>
                        </g>
                    </g>
                </g>
                <g id="use4206-7-9" transform="translate(35.621199, 141.121736)" stroke-width="4.48695585" fill="#E6E6E6">
                    <g id="use4069-3">
                        <path d="M23.2340088,11.6634772 C23.2340088,18.1122611 18.0050596,23.3397024 11.5553054,23.3397024 C5.10515284,23.3397024 -0.123398009,18.1118628 -0.123398009,11.6634772 C-0.123398009,5.21469332 5.10555114,-0.0127480702 11.5553054,-0.0127480702 C18.0054579,-0.0127480702 23.2340088,5.21509154 23.2340088,11.6634772 L23.2340088,11.6634772 Z" id="path4047-2"></path>
                    </g>
                </g>
                <g id="use4206-3-6" transform="translate(13.745429, 88.124391)" stroke-width="4.48695585" fill="#E6E6E6">
                    <g id="use4069-3">
                        <path d="M23.2340088,11.6634772 C23.2340088,18.1122611 18.0050596,23.3397024 11.5553054,23.3397024 C5.10515284,23.3397024 -0.123398009,18.1118628 -0.123398009,11.6634772 C-0.123398009,5.21469332 5.10555114,-0.0127480702 11.5553054,-0.0127480702 C18.0054579,-0.0127480702 23.2340088,5.21509154 23.2340088,11.6634772 L23.2340088,11.6634772 Z" id="path4047-2"></path>
                    </g>
                </g>
                <g id="use4206-34-6" transform="translate(88.461538, 163.085399)" stroke-width="4.48695585" fill="#E6E6E6">
                    <g id="use4069-3">
                        <path d="M23.2340088,11.6634772 C23.2340088,18.1122611 18.0050596,23.3397024 11.5553054,23.3397024 C5.10515284,23.3397024 -0.123398009,18.1118628 -0.123398009,11.6634772 C-0.123398009,5.21469332 5.10555114,-0.0127480702 11.5553054,-0.0127480702 C18.0054579,-0.0127480702 23.2340088,5.21509154 23.2340088,11.6634772 L23.2340088,11.6634772 Z" id="path4047-2"></path>
                    </g>
                </g>
                <path d="M90.2551473,124.614932 C85.0055569,122.394477 80.4358011,120.292063 80.100378,119.942869 C79.7647576,119.593652 77.6882915,114.968816 75.4860636,109.665713 L71.481978,100.023306 L75.3397819,90.5364027 C77.4615521,85.3186338 79.6051357,80.6200629 80.103228,80.0948882 C80.6013368,79.5697853 85.2684694,77.3615445 90.4744876,75.1876862 L99.9403242,71.2352066 L109.955882,75.4305173 L119.97144,79.625828 L124.183959,89.7613134 L128.396478,99.8967988 L124.277022,110.009042 L120.157566,120.121284 L112.719615,123.262538 C108.628604,124.990246 104.04849,126.909708 102.541278,127.528075 C99.8927511,128.614672 99.4809261,128.516997 90.2561338,124.615209 L90.2551473,124.614932 Z" id="path4501-2" stroke-width="5.2554471" fill="#333333"></path>
            </g>
            <g id="Harddrive" transform="translate(64.000000, 53.000000)" sketch:type="MSShapeGroup">
                <rect id="rect3026-0" fill="#333333" x="0" y="0" width="72.0915" height="94.1193651" rx="9.6122"></rect>
                <path d="M65,58 C65,74.0162538 52.0162538,87 36,87 C19.9837462,87 7,74.0162538 7,58 C7,41.9837462 19.9837462,29 36,29 C52.0162538,29 65,41.9837462 65,58 L65,58 Z" id="path3016-2" fill="#E6E6E6"></path>
                <path d="M68,11 C68,14.8661 64.8661,18 61,18 C57.1339,18 54,14.8661 54,11 C54,7.1339 57.1339,4 61,4 C64.8661,4 68,7.1339 68,11 L68,11 Z" id="path3034-0" fill="#E6E6E6"></path>
                <path d="M8.085,17.6436508 L20.91525,5.77130159 L42.22875,35.2082222 L36.0636,40.9130524 L8.085,17.6436508 Z" id="rect3832-9" stroke="#333333" stroke-width="2.50997965" fill="#E6E6E6"></path>
                <path d="M45.2145,58.10725 C45.2145,63.136975 41.137125,67.2145 36.10725,67.2145 C31.077525,67.2145 27,63.137125 27,58.10725 C27,53.077525 31.077375,49 36.10725,49 C41.136975,49 45.2145,53.077375 45.2145,58.10725 L45.2145,58.10725 Z" id="path5336" fill="#333333"></path>
            </g>
            <g id="Sia" transform="translate(184.000000, 3.000000)" fill="#333333" sketch:type="MSShapeGroup">
                <path d="M15.8159519,148.737767 L15.8159519,121.054999 L25.1792411,121.136419 C25.4506421,130.364054 28.1239023,137.189688 33.1991018,141.613525 C38.2743013,146.037362 45.9955452,148.249247 56.363065,148.249247 C66.0249421,148.249247 73.3933699,146.335899 78.4685694,142.509144 C83.5437689,138.682389 86.0813306,133.105181 86.0813306,125.777353 C86.0813306,119.915091 84.5479377,115.409901 81.4811059,112.261649 C78.4142742,109.113397 71.9414564,106.046611 62.0624584,103.0612 L46.022737,98.2574251 C34.4067723,94.7292116 26.2241536,90.3325806 21.4746354,85.0674004 C16.7251171,79.8022202 14.3503936,72.5830607 14.3503936,63.4097054 C14.3503936,53.0964658 18.0142528,45.0902551 25.3420809,39.3908332 C32.6699091,33.6914113 42.9558543,30.8417431 56.2002252,30.8417431 C61.8453669,30.8417431 68.0332178,31.4523863 74.7639637,32.673691 C81.4947096,33.8949957 88.6595896,35.6726459 96.2588188,38.0066949 L96.2588188,63.8982249 L87.0583695,63.8982249 C86.1356059,55.3219519 83.2723679,49.1205311 78.4685694,45.2937764 C73.664771,41.4670217 66.3506226,39.5536731 56.5259048,39.5536731 C47.9496319,39.5536731 41.4225347,41.3041835 36.9444175,44.805257 C32.4663003,48.3063304 30.2272753,53.3950237 30.2272753,60.0714893 C30.2272753,65.8794716 31.9099365,70.4389408 35.2753094,73.7500335 C38.6406823,77.0611262 45.7784227,80.3450296 56.6887446,83.6018421 L71.7514272,88.0799369 C82.7703095,91.3910296 90.6272519,95.6112525 95.3224899,100.740732 C100.017728,105.870212 102.365312,112.750125 102.365312,121.380678 C102.365312,133.159484 98.5928939,142.034165 91.0479449,148.004988 C83.5029959,153.97581 72.2671612,156.961177 57.3401039,156.961177 C50.6636382,156.961177 43.8651441,156.282685 36.9444175,154.92568 C30.0236909,153.568674 22.9809395,151.506057 15.8159519,148.737767 Z M130.780859,41.1820712 C130.780859,38.6851816 131.690039,36.5140058 133.508426,34.6684787 C135.326813,32.8229516 137.511558,31.9002019 140.062728,31.9002019 C142.559618,31.9002019 144.717224,32.8229516 146.535611,34.6684787 C148.353998,36.5140058 149.263177,38.6851816 149.263177,41.1820712 C149.263177,43.733241 148.367567,45.9044168 146.576321,47.6956636 C144.785074,49.4869105 142.613898,50.3825205 140.062728,50.3825205 C137.511558,50.3825205 135.326813,49.4869105 133.508426,47.6956636 C131.690039,45.9044168 130.780859,43.733241 130.780859,41.1820712 Z M149.914537,145.96949 L164.0816,145.96949 L164.0816,154.6 L120.603371,154.6 L120.603371,145.96949 L134.933274,145.96949 L134.933274,76.76257 L120.603371,76.76257 L120.603371,68.0506401 L149.914537,68.0506401 L149.914537,145.96949 Z M249.246822,100.537182 L249.246822,145.96949 L262.599686,145.96949 L262.599686,154.6 L234.265559,154.6 L234.265559,145.236711 C230.954466,149.253446 227.127769,152.211673 222.785352,154.11148 C218.442936,156.011288 213.367812,156.961177 207.55983,156.961177 C197.952233,156.961177 190.325978,154.410046 184.680836,149.307706 C179.035695,144.205366 176.213166,137.311883 176.213166,128.62705 C176.213166,119.670816 179.44279,112.723053 185.902135,107.783554 C192.36148,102.844055 201.480418,100.374343 213.259223,100.374343 L234.265559,100.374343 L234.265559,94.4306895 C234.265559,87.8627843 232.270791,82.7740911 228.281196,79.1644572 C224.291601,75.5548233 218.687253,73.7500335 211.467985,73.7500335 C205.497163,73.7500335 200.747716,75.1070183 197.219502,77.8210288 C193.691288,80.5350392 191.492973,84.5517144 190.62449,89.8711748 L182.889599,89.8711748 L182.889599,72.3658951 C188.100499,70.1404065 193.162052,68.4713152 198.074411,67.3585709 C202.98677,66.2458266 207.776926,65.6894628 212.445024,65.6894628 C224.44095,65.6894628 233.573459,68.6612597 239.842823,74.6049425 C246.112187,80.5486253 249.246822,89.1926189 249.246822,100.537182 Z M234.265559,127.405751 L234.265559,109.086273 L214.969041,109.086273 C207.532653,109.086273 201.996155,110.687515 198.359381,113.890047 C194.722607,117.092579 192.904247,122.004865 192.904247,128.62705 C192.904247,134.652153 194.749746,139.42874 198.440801,142.956953 C202.131855,146.485167 207.125559,148.249247 213.422063,148.249247 C219.664287,148.249247 224.698701,146.322329 228.525456,142.468434 C232.35221,138.614539 234.265559,133.593695 234.265559,127.405751 Z" id="tspan4855-4-2"></path>
            </g>
        </g>
    </g>
</svg>